<svg width="33" height="33" viewBox="0 0 33 33" fill="none" xmlns="http://www.w3.org/2000/svg">
<path d="M12.0818 23.3525C13.9147 23.3525 15.4 24.8412 15.4001 26.6768C15.4001 28.5093 13.9147 29.998 12.0818 29.998C10.2489 29.998 8.7644 28.5126 8.7644 26.6768C8.76456 24.8412 10.2488 23.3525 12.0818 23.3525ZM21.6013 23.3525C23.4343 23.3525 24.9195 24.8412 24.9197 26.6768C24.9197 28.5093 23.4343 29.998 21.6013 29.998C19.7686 29.9979 18.2839 28.5126 18.2839 26.6768C18.2841 24.8413 19.7685 23.3526 21.6013 23.3525ZM12.0818 25.5537C11.4693 25.5537 10.9685 26.0566 10.9685 26.6738C10.9685 27.291 11.4693 27.7939 12.0818 27.7939C12.6978 27.7939 13.198 27.2908 13.198 26.6738C13.198 26.0569 12.6978 25.5537 12.0818 25.5537ZM21.6013 25.5537C20.9889 25.5538 20.488 26.0567 20.488 26.6738C20.488 27.291 20.9889 27.7938 21.6013 27.7939C22.2164 27.7939 22.7143 27.2917 22.7175 26.6738C22.7175 26.0569 22.2173 25.5537 21.6013 25.5537ZM6.45581 3.6748L6.47437 3.80371L6.91675 6.84668H27.322C28.1035 6.84684 28.7419 7.48018 28.7419 8.2627V8.27051L28.741 8.27734L27.4714 20.9717L27.4705 20.9707C27.463 21.7495 26.833 22.3767 26.0525 22.377H7.64722C6.86666 22.3768 6.23624 21.7467 6.22827 20.9717L5.03687 9.04688C5.01211 8.98039 4.99246 8.90983 4.98218 8.83496L4.55249 5.87695H2.20483C1.59686 5.87695 1.10353 5.38428 1.10327 4.77637C1.10327 4.17179 1.59637 3.6748 2.20483 3.6748H6.45581ZM8.36304 20.1748H25.3328L26.447 9.05078H7.25269L8.36304 20.1748Z" fill="white" stroke="white" stroke-width="0.3"/>
<path d="M20.2061 11.9805C20.4481 11.7398 20.8401 11.7397 21.082 11.9805C21.3243 12.2217 21.3241 12.6132 21.082 12.8545L16.3223 17.5908C16.2013 17.711 16.0426 17.7715 15.8848 17.7715C15.7269 17.7715 15.5682 17.711 15.4473 17.5908L12.9814 15.1377C12.7392 14.8965 12.7394 14.505 12.9814 14.2637C13.2234 14.0229 13.6154 14.0224 13.8574 14.2627L15.8848 16.2803L20.2061 11.9805Z" fill="white" stroke="white" stroke-width="0.4"/>
</svg>
