<svg width="14" height="13" viewBox="0 0 14 13" fill="none" xmlns="http://www.w3.org/2000/svg">
<path d="M10.0469 1.2998L10.1787 1.83008L10.6787 3.83008L10.8965 4.7002H3.10352L3.32129 3.83008L3.82129 1.83008L3.95312 1.2998H10.0469Z" stroke="#666666" stroke-width="1.4"/>
<path d="M5 0H9V1H5V0Z" fill="#666666"/>
<path d="M14 11H0V5H14V11ZM3 7C2.44772 7 2 7.44772 2 8C2 8.55228 2.44772 9 3 9C3.55228 9 4 8.55228 4 8C4 7.44772 3.55228 7 3 7ZM5 9H9V7H5V9ZM11 7C10.4477 7 10 7.44772 10 8C10 8.55228 10.4477 9 11 9C11.5523 9 12 8.55228 12 8C12 7.44772 11.5523 7 11 7Z" fill="#666666"/>
<mask id="path-4-inside-1_1630_3308" fill="white">
<path d="M1 11H4V12.5C4 12.7761 3.77614 13 3.5 13H1.5C1.22386 13 1 12.7761 1 12.5V11Z"/>
</mask>
<path d="M1 11H4V12.5C4 12.7761 3.77614 13 3.5 13H1.5C1.22386 13 1 12.7761 1 12.5V11Z" fill="#666666" stroke="#666666" stroke-width="2" mask="url(#path-4-inside-1_1630_3308)"/>
<mask id="path-5-inside-2_1630_3308" fill="white">
<path d="M10 11H13V12.5C13 12.7761 12.7761 13 12.5 13H10.5C10.2239 13 10 12.7761 10 12.5V11Z"/>
</mask>
<path d="M10 11H13V12.5C13 12.7761 12.7761 13 12.5 13H10.5C10.2239 13 10 12.7761 10 12.5V11Z" fill="#666666" stroke="#666666" stroke-width="2" mask="url(#path-5-inside-2_1630_3308)"/>
</svg>
