<svg width="24" height="24" viewBox="0 0 24 24" fill="none" xmlns="http://www.w3.org/2000/svg">
<g clip-path="url(#clip0_474_14196)">
<path d="M7.8855 13.02C9.6105 13.02 11.0625 14.181 11.511 15.7635H22.971C23.2339 15.7777 23.4814 15.8922 23.6625 16.0833C23.8435 16.2744 23.9445 16.5277 23.9445 16.791C23.9445 17.0543 23.8435 17.3076 23.6625 17.4987C23.4814 17.6899 23.2339 17.8043 22.971 17.8185H11.511C11.287 18.6076 10.8118 19.3021 10.1573 19.7966C9.5029 20.2912 8.70502 20.5587 7.88475 20.5587C7.06448 20.5587 6.2666 20.2912 5.61217 19.7966C4.95774 19.3021 4.48248 18.6076 4.2585 17.8185H1.0305C0.767591 17.8043 0.520131 17.6899 0.339049 17.4987C0.157967 17.3076 0.0570405 17.0543 0.0570405 16.791C0.0570405 16.5277 0.157967 16.2744 0.339049 16.0833C0.520131 15.8922 0.767591 15.7777 1.0305 15.7635H4.26C4.48334 14.9739 4.95824 14.2788 5.61257 13.7836C6.2669 13.2885 7.06494 13.0204 7.8855 13.02ZM7.8855 15.078C7.65618 15.0712 7.42783 15.1105 7.21398 15.1936C7.00013 15.2767 6.80513 15.4018 6.64052 15.5616C6.47592 15.7214 6.34506 15.9127 6.2557 16.124C6.16634 16.3353 6.12029 16.5623 6.12029 16.7918C6.12029 17.0212 6.16634 17.2483 6.2557 17.4596C6.34506 17.6709 6.47592 17.8621 6.64052 18.0219C6.80513 18.1817 7.00013 18.3068 7.21398 18.3899C7.42783 18.473 7.65618 18.5123 7.8855 18.5055C8.33124 18.4923 8.7543 18.306 9.06492 17.986C9.37555 17.6661 9.54929 17.2377 9.54929 16.7918C9.54929 16.3458 9.37555 15.9174 9.06492 15.5975C8.7543 15.2775 8.33124 15.0912 7.8855 15.078ZM16.1145 3.42001C17.8395 3.42001 19.2915 4.57951 19.74 6.16201H22.9725C23.2454 6.16201 23.5071 6.27043 23.7001 6.4634C23.8931 6.65638 24.0015 6.91811 24.0015 7.19101C24.0015 7.46392 23.8931 7.72565 23.7001 7.91863C23.5071 8.1116 23.2454 8.22001 22.9725 8.22001H19.74C19.5156 9.00849 19.0402 9.70231 18.386 10.1963C17.7317 10.6903 16.9343 10.9576 16.1145 10.9576C15.2947 10.9576 14.4973 10.6903 13.843 10.1963C13.1888 9.70231 12.7134 9.00849 12.489 8.22001H1.029C0.756092 8.22001 0.494362 8.1116 0.301387 7.91863C0.108412 7.72565 0 7.46392 0 7.19101C0 6.91811 0.108412 6.65638 0.301387 6.4634C0.494362 6.27043 0.756092 6.16201 1.029 6.16201H12.489C12.7126 5.37271 13.1876 4.6779 13.8419 4.18304C14.4962 3.68818 15.2941 3.42029 16.1145 3.42001ZM16.1145 5.47651C15.8892 5.47661 15.666 5.5211 15.4579 5.60742C15.2497 5.69375 15.0606 5.82023 14.9013 5.97965C14.742 6.13906 14.6157 6.32829 14.5296 6.53652C14.4434 6.74475 14.3992 6.96791 14.3993 7.19326C14.3993 7.41861 14.4438 7.64173 14.5302 7.84989C14.6165 8.05805 14.743 8.24716 14.9024 8.40644C15.0618 8.56571 15.251 8.69203 15.4593 8.77818C15.6675 8.86432 15.8907 8.90861 16.116 8.90851C16.5711 8.90851 17.0076 8.72772 17.3294 8.40591C17.6512 8.0841 17.832 7.64762 17.832 7.19251C17.832 6.7374 17.6512 6.30093 17.3294 5.97912C17.0076 5.65731 16.5711 5.47651 16.116 5.47651H16.1145Z" fill="#616161"/>
</g>
<defs>
<clipPath id="clip0_474_14196">
<rect width="24" height="24" fill="white"/>
</clipPath>
</defs>
</svg>
