<svg width="20" height="20" viewBox="0 0 20 20" fill="none" xmlns="http://www.w3.org/2000/svg">
<g clip-path="url(#clip0_474_14167)">
<path d="M3.60036 2.77228C2.64548 2.77228 1.72972 3.1516 1.05452 3.8268C0.379324 4.502 0 5.41776 0 6.37264V16.2736C0 17.2285 0.379324 18.1443 1.05452 18.8195C1.72972 19.4947 2.64548 19.874 3.60036 19.874H13.5013C14.4562 19.874 15.372 19.4947 16.0472 18.8195C16.7224 18.1443 17.1017 17.2285 17.1017 16.2736V6.37264C17.1017 5.41776 16.7224 4.502 16.0472 3.8268C15.372 3.1516 14.4562 2.77228 13.5013 2.77228H3.60036ZM3.60036 4.57246H13.5013C13.9555 4.57231 14.3929 4.74384 14.726 5.05265C15.059 5.36146 15.263 5.78474 15.297 6.23762L15.3015 6.37264V16.2736C15.3017 16.7278 15.1301 17.1652 14.8213 17.4982C14.5125 17.8313 14.0892 18.0352 13.6364 18.0693L13.5013 18.0738H3.60036C3.1462 18.074 2.70876 17.9024 2.37575 17.5936C2.04273 17.2848 1.83874 16.8615 1.80468 16.4086L1.80018 16.2736V6.37264C1.80004 5.91847 1.97156 5.48104 2.28037 5.14802C2.58919 4.815 3.01246 4.61102 3.46535 4.57696L3.60036 4.57246ZM5.59856 0C5.36915 0.000254462 5.14849 0.0880999 4.98167 0.245588C4.81485 0.403076 4.71446 0.61832 4.70102 0.84734C4.68757 1.07636 4.76208 1.30187 4.90933 1.4778C5.05657 1.65372 5.26544 1.76678 5.49325 1.79388L5.59856 1.80018H16.0621C17.1872 1.80018 18.1188 2.68587 18.1953 3.79298L18.1998 3.93789V14.4014C18.2001 14.6309 18.2879 14.8515 18.4454 15.0183C18.6029 15.1852 18.8181 15.2855 19.0472 15.299C19.2762 15.3124 19.5017 15.2379 19.6776 15.0907C19.8535 14.9434 19.9666 14.7346 19.9937 14.5068L20 14.4014V3.93789C19.9976 2.92708 19.6076 1.95569 18.9103 1.2239C18.213 0.492106 17.2615 0.0556608 16.252 0.00450059L16.0621 0H5.59856Z" fill="#616161"/>
</g>
<defs>
<clipPath id="clip0_474_14167">
<rect width="20" height="20" fill="white"/>
</clipPath>
</defs>
</svg>
