<svg width="26" height="26" viewBox="0 0 26 26" fill="none" xmlns="http://www.w3.org/2000/svg">
<path d="M13.2715 2.08569C19.4389 2.08573 24.457 7.1036 24.457 13.2712C24.4569 19.4387 19.4388 24.4567 13.2715 24.4568C7.10368 24.4568 2.08611 19.4388 2.08594 13.2712C2.08594 7.10357 7.10357 2.08569 13.2715 2.08569ZM13.2715 3.7312C8.01106 3.7312 3.73145 8.01107 3.73145 13.2712C3.73162 18.5313 8.01117 22.8103 13.2715 22.8103C18.5313 22.8103 22.8104 18.5312 22.8105 13.2712C22.8105 8.01109 18.5311 3.73124 13.2715 3.7312Z" fill="#949494" stroke="#949494" stroke-width="0.1625"/>
<path d="M8.3296 18.5391C8.45331 18.6567 8.61563 18.719 8.7808 18.719C8.85581 18.719 8.93149 18.7063 9.00431 18.6795L15.8138 16.2062C15.9039 16.1734 15.9858 16.1213 16.0537 16.0535C16.1216 15.9857 16.1738 15.9039 16.2066 15.8137L18.68 9.00452C18.7215 8.89004 18.7304 8.76626 18.7056 8.64702C18.6808 8.52779 18.6233 8.4178 18.5396 8.32937C18.3685 8.14929 18.1106 8.08129 17.8728 8.15323L10.7538 10.3173C10.6508 10.3486 10.557 10.4049 10.4808 10.481C10.4046 10.5572 10.3484 10.651 10.3171 10.754L8.15324 17.8728C8.1179 17.9893 8.11568 18.1133 8.14683 18.231C8.17798 18.3487 8.24126 18.4554 8.3296 18.5391Z" fill="#949494"/>
<path d="M12.5488 13.4218C12.5488 13.6534 12.6409 13.8756 12.8047 14.0394C12.9685 14.2032 13.1906 14.2952 13.4223 14.2952C13.6539 14.2952 13.8761 14.2032 14.0399 14.0394C14.2037 13.8756 14.2957 13.6534 14.2957 13.4218C14.2957 13.1901 14.2037 12.968 14.0399 12.8042C13.8761 12.6404 13.6539 12.5483 13.4223 12.5483C13.1906 12.5483 12.9685 12.6404 12.8047 12.8042C12.6409 12.968 12.5488 13.1901 12.5488 13.4218Z" fill="white"/>
</svg>
