<svg width="26" height="26" viewBox="0 0 26 26" fill="none" xmlns="http://www.w3.org/2000/svg">
<path d="M13.2712 2.08545C19.4386 2.08549 24.4568 7.10336 24.4568 13.271C24.4566 19.4385 19.4385 24.4565 13.2712 24.4565C7.10344 24.4565 2.08587 19.4385 2.08569 13.271C2.08569 7.10333 7.10333 2.08545 13.2712 2.08545Z" fill="#0302FD" stroke="#0302FD" stroke-width="0.1625"/>
<path d="M8.3296 18.5391C8.45331 18.6567 8.61563 18.719 8.7808 18.719C8.85581 18.719 8.93149 18.7063 9.00431 18.6795L15.8138 16.2062C15.9039 16.1734 15.9858 16.1213 16.0537 16.0535C16.1216 15.9857 16.1738 15.9039 16.2066 15.8137L18.68 9.00452C18.7215 8.89004 18.7304 8.76626 18.7056 8.64702C18.6808 8.52779 18.6233 8.4178 18.5396 8.32937C18.3685 8.14929 18.1106 8.08129 17.8728 8.15323L10.7538 10.3173C10.6508 10.3486 10.557 10.4049 10.4808 10.481C10.4046 10.5572 10.3484 10.651 10.3171 10.754L8.15324 17.8728C8.1179 17.9893 8.11568 18.1133 8.14683 18.231C8.17798 18.3487 8.24126 18.4554 8.3296 18.5391Z" fill="white"/>
<path d="M12.5486 13.4218C12.5486 13.6534 12.6406 13.8756 12.8044 14.0394C12.9682 14.2032 13.1904 14.2952 13.422 14.2952C13.6537 14.2952 13.8758 14.2032 14.0396 14.0394C14.2035 13.8756 14.2955 13.6534 14.2955 13.4218C14.2955 13.1901 14.2035 12.968 14.0396 12.8042C13.8758 12.6404 13.6537 12.5483 13.422 12.5483C13.1904 12.5483 12.9682 12.6404 12.8044 12.8042C12.6406 12.968 12.5486 13.1901 12.5486 13.4218Z" fill="#0051FF"/>
</svg>
