<svg width="27" height="25" viewBox="0 0 27 25" fill="none" xmlns="http://www.w3.org/2000/svg">
<path d="M19.9639 5.42188C18.8282 5.42188 17.309 6.02322 15.8604 6.97559C14.419 7.92318 13.2487 9.08505 12.7441 9.98926L12.0596 9.79688V23.708C12.0596 23.8653 12.1854 23.9912 12.3428 23.9912C12.5 23.9911 12.6259 23.8652 12.626 23.708V10.8018L14.0273 11.4512C14.6721 11.7501 15.6256 11.9611 16.6748 12.043C17.7155 12.1242 18.7616 12.0716 19.5635 11.9043H19.5654C20.5908 11.6916 22.0604 10.8991 23.3018 9.83984C23.9115 9.31946 24.4286 8.76663 24.7891 8.23633C25.0238 7.89091 25.1712 7.58598 25.25 7.3291C25.2483 7.32764 25.2459 7.32666 25.2441 7.3252C24.9989 7.11842 24.6282 6.83609 24.1426 6.55273C23.1713 5.98608 21.7556 5.42189 19.9639 5.42188ZM1.8877 0.990234C1.55029 1.0008 1.27427 1.03649 1.05566 1.08496C1.10764 1.47718 1.19526 2.01332 1.34766 2.63184C1.6757 3.96319 2.28336 5.62904 3.39062 7.07715C4.19192 8.12436 5.53182 8.95872 6.99023 9.43848C8.46299 9.92295 9.87466 9.98725 10.7725 9.7002L11.2129 9.55957L10.8975 9.47168C10.9293 8.61839 10.7282 7.42198 10.3232 6.24316C9.91545 5.05611 9.34604 4.01998 8.73535 3.41406L8.73438 3.41309C7.7267 2.41045 5.99612 1.62841 4.24805 1.24219C3.38765 1.05209 2.56823 0.968922 1.8877 0.990234Z" stroke="#29292B" stroke-width="1.97307"/>
</svg>
