<svg width="26" height="26" viewBox="0 0 26 26" fill="none" xmlns="http://www.w3.org/2000/svg">
<path d="M18.6084 7.17407C17.673 7.17407 16.4216 7.66897 15.2285 8.45337C14.0415 9.23378 13.0786 10.1911 12.6631 10.9358L12.0986 10.7766V22.2336C12.0986 22.3631 12.2017 22.4668 12.3311 22.467C12.4607 22.467 12.5645 22.3633 12.5645 22.2336V11.6038L13.7188 12.1389C14.2498 12.3851 15.0352 12.5588 15.8994 12.6262C16.7567 12.6931 17.6188 12.6498 18.2793 12.512H18.2803C19.1247 12.3368 20.3352 11.685 21.3574 10.8127C21.8596 10.3842 22.2851 9.92819 22.582 9.49146C22.7751 9.20737 22.8969 8.95674 22.9619 8.74536C22.9603 8.74404 22.9586 8.74279 22.957 8.74146C22.7551 8.57116 22.4498 8.33909 22.0498 8.10571C21.2499 7.63899 20.0841 7.17409 18.6084 7.17407ZM3.7207 3.52368C3.44266 3.53241 3.21522 3.56183 3.03516 3.60181C3.07795 3.92476 3.15091 4.36597 3.27637 4.87524C3.52965 5.90322 3.98463 7.17426 4.79199 8.31177L4.95898 8.53735C5.61896 9.39967 6.72284 10.0866 7.92383 10.4817C9.13647 10.8805 10.2987 10.9338 11.0381 10.6975L11.4014 10.5813L11.1416 10.509C11.1678 9.80626 11.0024 8.82072 10.6689 7.84985C10.3331 6.87233 9.86421 6.01883 9.36133 5.51978L9.36035 5.5188C8.53046 4.69306 7.1047 4.04978 5.66504 3.73169C4.95643 3.57513 4.28119 3.50613 3.7207 3.52368Z" stroke="#949494" stroke-width="1.625"/>
</svg>
