<svg width="24" height="24" viewBox="0 0 24 24" fill="none" xmlns="http://www.w3.org/2000/svg">
<path d="M22.4345 13.5648H13.5655V22.4352C13.5655 23.2996 12.8645 24 12 24C11.1356 24 10.4345 23.2996 10.4345 22.4352V13.5648H1.56551C0.700366 13.5648 0 12.8644 0 12C0 11.1359 0.700446 10.4352 1.56551 10.4352H10.4345V1.56478C10.4345 0.700687 11.1356 0 12 0C12.8644 0 13.5655 0.700714 13.5655 1.56478V10.4352H22.4345C23.2996 10.4352 24 11.1359 24 11.9999C24 12.8644 23.2996 13.5647 22.4345 13.5647L22.4345 13.5648Z" fill="white"/>
</svg>
