<svg width="24" height="24" viewBox="0 0 24 24" fill="none" xmlns="http://www.w3.org/2000/svg">
<g clip-path="url(#clip0_474_14192)">
<path d="M13.1692 1.30347C10.3454 1.30644 7.63813 2.4295 5.64142 4.42622C3.64471 6.42293 2.52165 9.1302 2.51867 11.954C2.51867 12.2591 2.53414 12.5628 2.55944 12.8651L1.34606 11.9962C1.13354 11.855 0.874519 11.8019 0.623611 11.8481C0.372703 11.8942 0.149511 12.036 0.00109124 12.2434C-0.147329 12.4509 -0.20938 12.708 -0.17198 12.9603C-0.13458 13.2127 -0.000651836 13.4407 0.201569 13.5962L3.51131 15.9653C3.67904 16.0841 3.87945 16.1479 4.08496 16.1481C4.2439 16.1491 4.40066 16.1111 4.54158 16.0376C4.68249 15.9641 4.80328 15.8572 4.89342 15.7263L7.04742 12.6092C7.12109 12.5025 7.17304 12.3824 7.20029 12.2557C7.22755 12.129 7.22959 11.9982 7.20628 11.8707C7.18298 11.7432 7.13479 11.6216 7.06447 11.5127C6.99415 11.4038 6.90308 11.3099 6.79645 11.2362C6.68982 11.1625 6.56972 11.1106 6.44302 11.0833C6.31631 11.0561 6.18548 11.054 6.05798 11.0773C5.93049 11.1006 5.80884 11.1488 5.69997 11.2192C5.5911 11.2895 5.49715 11.3805 5.42348 11.4872L4.52504 12.7863C4.49833 12.5051 4.48427 12.2324 4.48427 11.954C4.4846 9.9425 5.18324 7.99353 6.46087 6.43992C7.73849 4.88631 9.51585 3.82444 11.4894 3.43565C13.4629 3.04687 15.5102 3.35529 17.2817 4.30825C19.0531 5.2612 20.4387 6.79957 21.2019 8.66063C21.9651 10.5217 22.0586 12.59 21.4663 14.5123C20.874 16.4346 19.6327 18.0916 17.9545 19.2004C16.2762 20.3093 14.2651 20.801 12.2645 20.5918C10.2639 20.3826 8.39807 19.4853 6.98555 18.0532C6.80246 17.8668 6.5528 17.7607 6.2915 17.7583C6.03019 17.756 5.77865 17.8575 5.5922 18.0406C5.40575 18.2237 5.29967 18.4733 5.2973 18.7346C5.29493 18.9959 5.39646 19.2475 5.57955 19.4339C6.81093 20.6839 8.33207 21.6103 10.0078 22.1308C11.6834 22.6512 13.4618 22.7496 15.1846 22.4172C16.9075 22.0848 18.5216 21.3319 19.8833 20.2253C21.2451 19.1188 22.3124 17.693 22.9903 16.0746C23.6683 14.4562 23.9358 12.6954 23.7693 10.9487C23.6027 9.20194 23.0072 7.52341 22.0357 6.0623C21.0641 4.60119 19.7466 3.40275 18.2002 2.57351C16.6539 1.74428 14.9266 1.30993 13.172 1.30909L13.1692 1.30347Z" fill="#616161"/>
<path d="M12.8885 5.79144C12.6275 5.79144 12.3771 5.89514 12.1926 6.07971C12.008 6.26428 11.9043 6.51462 11.9043 6.77565V12.0524C11.9046 12.2107 11.9431 12.3666 12.0166 12.5069C12.09 12.6471 12.1962 12.7676 12.3261 12.858L16.0633 15.4788C16.2278 15.5951 16.4243 15.6574 16.6257 15.6574C16.8346 15.6568 17.038 15.5897 17.2063 15.4658C17.3746 15.3418 17.499 15.1676 17.5617 14.9682C17.6243 14.7689 17.6219 14.5547 17.5547 14.3568C17.4876 14.159 17.3591 13.9876 17.1881 13.8675L13.8727 11.5406V6.77565C13.8727 6.6464 13.8473 6.51842 13.7978 6.39901C13.7483 6.2796 13.6758 6.1711 13.5844 6.07971C13.493 5.98832 13.3846 5.91582 13.2651 5.86636C13.1457 5.8169 13.0177 5.79144 12.8885 5.79144Z" fill="#616161"/>
</g>
<defs>
<clipPath id="clip0_474_14192">
<rect width="24" height="24" fill="white"/>
</clipPath>
</defs>
</svg>
