<svg width="26" height="26" viewBox="0 0 26 26" fill="none" xmlns="http://www.w3.org/2000/svg">
<path d="M22.1321 11.0339L21.312 10.2122V6.51792C21.312 6.17547 21.176 5.84705 20.9338 5.60491C20.6917 5.36276 20.3633 5.22673 20.0208 5.22673C19.6784 5.22673 19.35 5.36276 19.1078 5.60491C18.8657 5.84705 18.7296 6.17547 18.7296 6.51792V7.62352L13.76 2.64276C13.715 2.59752 13.6614 2.56161 13.6025 2.53711C13.5436 2.51261 13.4804 2.5 13.4166 2.5C13.3527 2.5 13.2895 2.51261 13.2306 2.53711C13.1717 2.56161 13.1182 2.59752 13.0731 2.64276L4.70103 11.0339L1.63643 14.1064C1.34457 14.3983 1.55236 14.898 1.96478 14.898H4.70103V21.8583C4.70103 22.6245 5.32283 23.2463 6.08898 23.2463H10.8017V16.9172C10.8017 15.4738 11.9723 14.3031 13.4174 14.3031C14.1391 14.3031 14.7926 14.5966 15.2653 15.0693C15.738 15.542 16.0315 16.1955 16.0315 16.9172V23.2463H20.7441C21.5103 23.2463 22.1321 22.6245 22.1321 21.8583V14.898H24.8683C25.2823 14.898 25.4886 14.3983 25.1967 14.1064L22.1321 11.0339Z" fill="#0302FD"/>
</svg>
