<svg width="26" height="26" viewBox="0 0 26 26" fill="none" xmlns="http://www.w3.org/2000/svg">
<g clip-path="url(#clip0_474_14895)">
<path d="M18.0088 8.13477L19.3965 9.52539V6.45508C19.3966 6.32824 19.4474 6.20688 19.5371 6.11719C19.6268 6.0275 19.7482 5.97663 19.875 5.97656C20.002 5.97656 20.1241 6.02742 20.2139 6.11719C20.3034 6.20686 20.3534 6.32833 20.3535 6.45508V10.4854L20.5918 10.7236L21.4111 11.5449L23.8828 14.0234H21.1738V21.7959C21.1738 22.1133 20.916 22.3711 20.5986 22.3711H16.6982V16.8545C16.6982 15.9082 16.3125 15.0509 15.6943 14.4326C15.0759 13.8142 14.218 13.4277 13.2715 13.4277C11.3782 13.4279 9.84388 14.9622 9.84375 16.8545V22.3711H5.94336C5.62599 22.3711 5.3682 22.1133 5.36816 21.7959V14.0234H2.65918L5.13086 11.5449L13.2705 3.38672L18.0088 8.13477Z" stroke="#949494" stroke-width="1.625"/>
</g>
<defs>
<clipPath id="clip0_474_14895">
<rect width="26" height="26" fill="white"/>
</clipPath>
</defs>
</svg>
