<svg width="20" height="25" viewBox="0 0 20 25" fill="none" xmlns="http://www.w3.org/2000/svg">
<path d="M0.664063 15.3721C0.217634 14.9256 0.21704 14.1947 0.663086 13.748L0.75 13.6689C1.20109 13.2993 1.8705 13.3299 2.28809 13.7471L8.60449 20.0635L8.60449 1.47852C8.60457 0.845328 9.12168 0.329102 9.75488 0.329102C10.3879 0.329283 10.9042 0.845439 10.9043 1.47852L10.9043 20.0615L17.2148 13.751L17.3018 13.6719C17.753 13.3019 18.4232 13.3324 18.8408 13.75C19.2871 14.1966 19.2872 14.9284 18.8408 15.375L10.5615 23.6533C10.3701 23.8446 10.1218 23.9562 9.86914 23.9814L9.85352 23.9834H9.83691C9.82693 23.9843 9.81289 23.9854 9.79785 23.9854H9.63965L9.61816 23.9785C9.615 23.978 9.61203 23.978 9.60938 23.9775V23.9785H9.49316L9.46191 23.9473C9.26996 23.8975 9.08874 23.7997 8.93945 23.6504L0.664063 15.3721ZM9.6543 23.9824C9.66618 23.9834 9.67582 23.9834 9.66992 23.9834C9.66308 23.9834 9.65654 23.9818 9.65039 23.9814C9.65171 23.9816 9.6531 23.9823 9.6543 23.9824ZM9.58789 23.9727H9.58496C9.58656 23.973 9.58953 23.973 9.59277 23.9736C9.59661 23.974 9.59989 23.9754 9.60254 23.9756C9.60498 23.9757 9.60728 23.9755 9.60938 23.9756L9.60254 23.9736C9.59645 23.9734 9.59073 23.9712 9.58496 23.9707H9.56738C9.57088 23.9713 9.57377 23.9723 9.57617 23.9727C9.58032 23.9732 9.58436 23.9723 9.58789 23.9727Z" fill="#29292B" stroke="#29292B" stroke-width="0.657143"/>
</svg>
