<svg width="17" height="17" viewBox="0 0 17 17" fill="none" xmlns="http://www.w3.org/2000/svg">
<path d="M8.5 0C13.1944 0 17 3.80558 17 8.5C17 13.1944 13.1944 17 8.5 17C3.80558 17 0 13.1944 0 8.5C0 3.80558 3.80558 0 8.5 0ZM8.5 2C4.91015 2 2 4.91015 2 8.5C2 12.0899 4.91015 15 8.5 15C12.0899 15 15 12.0899 15 8.5C15 4.91015 12.0899 2 8.5 2Z" fill="#E7E7E7"/>
<mask id="mask0_1657_4128" style="mask-type:alpha" maskUnits="userSpaceOnUse" x="0" y="0" width="17" height="17">
<path d="M8.5 0C13.1944 0 17 3.80558 17 8.5C17 13.1944 13.1944 17 8.5 17C3.80558 17 0 13.1944 0 8.5C0 3.80558 3.80558 0 8.5 0ZM8.5 2C4.91015 2 2 4.91015 2 8.5C2 12.0899 4.91015 15 8.5 15C12.0899 15 15 12.0899 15 8.5C15 4.91015 12.0899 2 8.5 2Z" fill="#E7E7E7"/>
</mask>
<g mask="url(#mask0_1657_4128)">
<path d="M8 1.5V-1L11.5 -3C14 -2.16667 19.2 -0.4 20 0C21 0.5 24.5 10 25 12C25.4 13.6 16.5 17.6667 12 19.5L-3.5 13.5L0.5 1.5L3.5 4C4 5 5 7.1 5 7.5C5 7.9 6 9.33333 6.5 10L9.5 7L8 1.5Z" fill="#393939"/>
</g>
</svg>
