<svg width="26" height="26" viewBox="0 0 26 26" fill="none" xmlns="http://www.w3.org/2000/svg">
<g clip-path="url(#clip0_1433_4666)">
<path d="M22.7519 5.29149H14.0845H14.8429L15.4929 4.20807C15.7096 3.88304 16.0346 3.66635 16.4138 3.66635C16.5763 3.66635 16.793 3.72053 16.9555 3.82887L18.364 4.64143C18.6348 4.74978 18.7974 5.02063 18.8515 5.29149H21.0184C21.0184 5.0748 20.9642 4.91229 20.91 4.69561C20.6934 3.88304 20.1516 3.17882 19.3932 2.74545L17.9848 1.93288C17.4973 1.66202 16.9555 1.49951 16.3597 1.49951C15.2221 1.49951 14.1387 2.09539 13.5428 3.12464L13.0011 4.15389L12.4052 3.12464C11.8093 2.14956 10.7259 1.49951 9.58828 1.49951C9.04657 1.49951 8.45069 1.66202 7.96315 1.93288L6.5547 2.74545C5.79631 3.17882 5.25459 3.88304 5.03791 4.69561C4.98374 4.91229 4.92957 5.0748 4.92957 5.29149H7.09641C7.15058 5.02063 7.36727 4.74978 7.58395 4.64143L8.9924 3.82887C9.20908 3.72053 9.3716 3.66635 9.58828 3.66635C9.96748 3.66635 10.3467 3.88304 10.5092 4.20807L11.1592 5.29149H11.9176H3.25026C1.46262 5.29149 0 6.75411 0 8.54175V10.7086C0 11.9004 0.650053 12.9296 1.62513 13.5255V21.0011C1.62513 23.3846 3.57529 25.3348 5.95882 25.3348H20.0433C22.4268 25.3348 24.377 23.3846 24.377 21.0011V13.5255C25.3521 12.9838 26.0021 11.9004 26.0021 10.7086V8.54175C26.0021 6.75411 24.5395 5.29149 22.7519 5.29149ZM22.7519 7.45833C23.3477 7.45833 23.8353 7.94587 23.8353 8.54175V10.7086C23.8353 11.3045 23.3477 11.792 22.7519 11.792H14.0845V7.45833H22.7519ZM2.16684 8.54175C2.16684 7.94587 2.65438 7.45833 3.25026 7.45833H11.9176V11.792H3.25026C2.65438 11.792 2.16684 11.3045 2.16684 10.7086V8.54175ZM20.0433 23.1679H5.95882C4.76705 23.1679 3.79198 22.1929 3.79198 21.0011V13.9589H11.9176V23.1679H14.0845V13.9589H22.2101V21.0011C22.2101 22.1929 21.2351 23.1679 20.0433 23.1679Z" fill="#949494"/>
</g>
<defs>
<clipPath id="clip0_1433_4666">
<rect width="26" height="26" fill="white"/>
</clipPath>
</defs>
</svg>
