<svg width="26" height="24" viewBox="0 0 26 24" fill="none" xmlns="http://www.w3.org/2000/svg">
<path d="M22.7519 3.79198H14.0845H14.8429L15.4929 2.70855C15.7096 2.38353 16.0346 2.16684 16.4138 2.16684C16.5763 2.16684 16.793 2.22101 16.9555 2.32936L18.364 3.14192C18.6348 3.25026 18.7974 3.52112 18.8515 3.79198H21.0184C21.0184 3.57529 20.9642 3.41278 20.91 3.19609C20.6934 2.38353 20.1516 1.6793 19.3932 1.24593L17.9848 0.433369C17.4973 0.162513 16.9555 0 16.3597 0C15.2221 0 14.1387 0.595882 13.5428 1.62513L13.0011 2.65438L12.4052 1.62513C11.8093 0.650053 10.7259 0 9.58828 0C9.04657 0 8.45069 0.162513 7.96315 0.433369L6.5547 1.24593C5.79631 1.6793 5.25459 2.38353 5.03791 3.19609C4.98374 3.41278 4.92957 3.57529 4.92957 3.79198H7.09641C7.15058 3.52112 7.36727 3.25026 7.58395 3.14192L8.9924 2.32936C9.20908 2.22101 9.3716 2.16684 9.58828 2.16684C9.96748 2.16684 10.3467 2.38353 10.5092 2.70855L11.1592 3.79198H11.9176H3.25026C1.46262 3.79198 0 5.25459 0 7.04224V9.20908C0 10.4008 0.650053 11.4301 1.62513 12.026V19.5016C1.62513 21.8851 3.57529 23.8353 5.95882 23.8353H20.0433C22.4268 23.8353 24.377 21.8851 24.377 19.5016V12.026C25.3521 11.4843 26.0021 10.4008 26.0021 9.20908V7.04224C26.0021 5.25459 24.5395 3.79198 22.7519 3.79198ZM22.7519 5.95882C23.3477 5.95882 23.8353 6.44636 23.8353 7.04224V9.20908C23.8353 9.80497 23.3477 10.2925 22.7519 10.2925H14.0845V5.95882H22.7519ZM2.16684 7.04224C2.16684 6.44636 2.65438 5.95882 3.25026 5.95882H11.9176V10.2925H3.25026C2.65438 10.2925 2.16684 9.80497 2.16684 9.20908V7.04224ZM20.0433 21.6684H5.95882C4.76705 21.6684 3.79198 20.6934 3.79198 19.5016V12.4593H11.9176V21.6684H14.0845V12.4593H22.2101V19.5016C22.2101 20.6934 21.2351 21.6684 20.0433 21.6684Z" fill="#0302FD"/>
</svg>
