<svg width="15" height="15" viewBox="0 0 15 15" fill="none" xmlns="http://www.w3.org/2000/svg">
<path d="M8.99421 10.4265L14.4717 4.949L14.3072 0.16625L9.52096 0L4.04346 5.4775L8.99421 10.4265ZM9.63733 4.87988C9.30919 4.55162 9.12489 4.10646 9.12497 3.64232C9.12506 3.17817 9.30951 2.73308 9.63777 2.40494C9.96602 2.0768 10.4112 1.8925 10.8753 1.89258C11.3395 1.89266 11.7846 2.07712 12.1127 2.40538C12.4408 2.73363 12.6251 3.17879 12.6251 3.64293C12.625 4.10708 12.4405 4.55217 12.1123 4.88031C11.784 5.20845 11.3389 5.39275 10.8747 5.39267C10.4106 5.39259 9.96547 5.20813 9.63733 4.87988Z" fill="#666666"/>
<path d="M2.85034 6.6614L7.80009 11.6111L10.275 9.13627L5.32522 4.18652L2.85034 6.6614Z" fill="#666666"/>
<path d="M4.20778 8.94092L5.44522 10.1784L2.97035 12.6532L1.73291 11.4158L4.20778 8.94092Z" fill="#666666"/>
<path d="M10.5131 8.87095V11.6972L7.875 14.4272V11.5021L10.5131 8.87095ZM5.55625 3.97095L2.92512 6.60907H0L2.72825 3.97095H5.5545H5.55625Z" fill="#666666"/>
</svg>
