<svg width="20" height="20" viewBox="0 0 20 20" fill="none" xmlns="http://www.w3.org/2000/svg">
<g clip-path="url(#clip0_474_14169)">
<path d="M0.909093 7.27272C0.363629 7.27272 0 6.90909 0 6.36363V2.72728C0 1.27272 1.27272 0 2.72728 0H6.36363C6.90909 0 7.27272 0.363629 7.27272 0.909093C7.27272 1.45456 6.90909 1.81819 6.36363 1.81819H2.72728C2.18181 1.81819 1.81819 2.18181 1.81819 2.72728V6.36363C1.81819 6.90909 1.45456 7.27272 0.909093 7.27272ZM6.36363 20H2.72728C1.27272 20 0 18.7273 0 17.2727V13.6364C0 13.0909 0.363629 12.7273 0.909093 12.7273C1.45456 12.7273 1.81817 13.0909 1.81817 13.6364V17.2727C1.81817 17.8182 2.1818 18.1818 2.72726 18.1818H6.36361C6.90907 18.1818 7.2727 18.5454 7.2727 19.0909C7.2727 19.6364 6.90909 20 6.36363 20ZM17.2727 20H13.6364C13.0909 20 12.7273 19.6364 12.7273 19.0909C12.7273 18.5454 13.0909 18.1818 13.6364 18.1818H17.2727C17.8182 18.1818 18.1818 17.8182 18.1818 17.2727V13.6364C18.1818 13.0909 18.5454 12.7273 19.0909 12.7273C19.6364 12.7273 20 13.0909 20 13.6364V17.2727C20 18.7273 18.7273 20 17.2727 20ZM19.0909 7.27272C18.5454 7.27272 18.1818 6.90909 18.1818 6.36363V2.72728C18.1818 2.18181 17.8182 1.81819 17.2727 1.81819H13.6364C13.0909 1.81819 12.7273 1.45456 12.7273 0.909093C12.7273 0.363629 13.0909 1.95312e-08 13.6364 1.95312e-08H17.2727C18.7273 1.95312e-08 20 1.27272 20 2.72728V6.36363C20 6.90909 19.6364 7.27272 19.0909 7.27272ZM19.0909 10.9091H0.909093C0.363629 10.9091 0 10.5454 0 10C0 9.45454 0.363629 9.09091 0.909093 9.09091H19.0909C19.6364 9.09091 20 9.45454 20 10C20 10.5454 19.6364 10.9091 19.0909 10.9091Z" fill="#616161"/>
</g>
<defs>
<clipPath id="clip0_474_14169">
<rect width="20" height="20" fill="white"/>
</clipPath>
</defs>
</svg>
