<svg width="20" height="20" viewBox="0 0 20 20" fill="none" xmlns="http://www.w3.org/2000/svg">
<g clip-path="url(#clip0_474_14180)">
<path d="M8.83301 0.312195C13.3072 0.312195 16.9375 3.94249 16.9375 8.41669C16.9375 10.4942 16.1184 12.3238 14.8887 13.7468L19.1592 18.3454H19.1582C19.3423 18.5304 19.4387 18.7658 19.4268 19.0056C19.4146 19.2468 19.2933 19.4816 19.0645 19.6647C18.8772 19.8467 18.6056 19.9372 18.416 19.9372C18.2237 19.9371 17.9471 19.8442 17.7598 19.6569L17.7568 19.654L13.4834 15.0515C12.1508 15.9492 10.5745 16.5212 8.83301 16.5212C4.35881 16.5212 0.728516 12.8909 0.728516 8.41669C0.728516 3.94249 4.35881 0.312195 8.83301 0.312195ZM8.91602 2.18719C5.47369 2.18737 2.6875 4.97433 2.6875 8.41669C2.6875 11.7766 5.47458 14.646 8.91602 14.6462C12.3585 14.6462 15.1455 11.8592 15.1455 8.41669C15.1455 4.97422 12.3585 2.18719 8.91602 2.18719Z" fill="#616161" stroke="#616161" stroke-width="0.208333"/>
</g>
<defs>
<clipPath id="clip0_474_14180">
<rect width="20" height="20" fill="white"/>
</clipPath>
</defs>
</svg>
