<svg width="24" height="24" viewBox="0 0 24 24" fill="none" xmlns="http://www.w3.org/2000/svg">
<path d="M1.78564 21.7686H21.981V19.126H1.78564V21.7686ZM15.5044 17.5283H19.5601V9.84375H15.5044V17.5283ZM9.85498 17.5283H13.9106V9.84375H9.85498V17.5283ZM4.20654 17.5283H8.26123V9.84375H4.20654V17.5283ZM1.83252 6.64844V8.24902H22.0288V6.64844L11.9331 1.99414L1.83252 6.64844ZM23.52 9.84375H21.1538V17.5283H22.7778C22.8823 17.5283 22.9859 17.5489 23.0825 17.5889C23.1792 17.6289 23.2673 17.6877 23.3413 17.7617C23.4153 17.8357 23.4741 17.9238 23.5142 18.0205C23.5541 18.1171 23.5747 18.2206 23.5747 18.3252V22.4512C23.5747 22.5558 23.5542 22.6592 23.5142 22.7559C23.4741 22.8525 23.4153 22.9406 23.3413 23.0146C23.2673 23.0886 23.1792 23.1475 23.0825 23.1875C22.986 23.2274 22.8823 23.248 22.7778 23.248H0.98877C0.884273 23.248 0.780644 23.2274 0.684082 23.1875C0.587436 23.1475 0.499272 23.0886 0.425293 23.0146C0.35129 22.9406 0.292491 22.8525 0.252441 22.7559C0.212444 22.6592 0.191895 22.5558 0.191895 22.4512V18.3262C0.191895 18.1148 0.275839 17.9112 0.425293 17.7617C0.574711 17.6125 0.777576 17.5283 0.98877 17.5283H2.61279V9.84375H0.23877V5.71191L0.349121 5.66016L11.8013 0.250977L11.8833 0.211914L11.9653 0.250977L23.4106 5.66016L23.52 5.71191V9.84375Z" fill="#29292B" stroke="#29292B" stroke-width="0.383333"/>
</svg>
