<svg width="24" height="24" viewBox="0 0 24 24" fill="none" xmlns="http://www.w3.org/2000/svg">
<path d="M1.78613 21.7687H21.9814V19.1261H1.78613V21.7687ZM15.5049 17.5284H19.5605V9.84387H15.5049V17.5284ZM9.85547 17.5284H13.9111V9.84387H9.85547V17.5284ZM4.20703 17.5284H8.26172V9.84387H4.20703V17.5284ZM1.83301 6.64856V8.24915H22.0293V6.64856L11.9336 1.99426L1.83301 6.64856ZM23.5205 9.84387H21.1543V17.5284H22.7783C22.8828 17.5284 22.9864 17.5491 23.083 17.589C23.1797 17.629 23.2678 17.6879 23.3418 17.7618C23.4158 17.8358 23.4746 17.9239 23.5146 18.0206C23.5546 18.1172 23.5752 18.2208 23.5752 18.3253V22.4513C23.5752 22.5559 23.5546 22.6593 23.5146 22.756C23.4746 22.8527 23.4158 22.9408 23.3418 23.0148C23.2678 23.0887 23.1797 23.1476 23.083 23.1876C22.9864 23.2276 22.8828 23.2482 22.7783 23.2482H0.989258C0.884762 23.2482 0.781132 23.2276 0.68457 23.1876C0.587925 23.1476 0.499761 23.0887 0.425781 23.0148C0.351779 22.9408 0.292979 22.8527 0.25293 22.756C0.212933 22.6593 0.192383 22.5559 0.192383 22.4513V18.3263C0.192383 18.1149 0.276328 17.9113 0.425781 17.7618C0.575199 17.6126 0.778064 17.5284 0.989258 17.5284H2.61328V9.84387H0.239258V5.71204L0.349609 5.66028L11.8018 0.251099L11.8838 0.212036L11.9658 0.251099L23.4111 5.66028L23.5205 5.71204V9.84387Z" fill="#29292B" stroke="#29292B" stroke-width="0.383333"/>
</svg>
