<svg width="32" height="32" viewBox="0 0 32 32" fill="none" xmlns="http://www.w3.org/2000/svg">
<path d="M8.95574 8.32222C8.77339 8.06514 8.69388 7.73512 8.75366 7.38358C8.87324 6.68049 9.49023 6.24286 10.1933 6.36243L24.255 8.75389C24.9581 8.87346 25.3957 9.49045 25.2761 10.1935C25.1566 10.8966 24.5396 11.3343 23.8365 11.2147L9.77481 8.82323C9.42327 8.76344 9.13809 8.5793 8.95574 8.32222Z" fill="white"/>
<path d="M20.6261 24.7754C20.4437 24.5183 20.3642 24.1883 20.424 23.8367L22.8154 9.77502C22.935 9.07194 23.552 8.6343 24.2551 8.75388C24.9582 8.87345 25.3958 9.49044 25.2762 10.1935L22.8848 24.2552C22.7652 24.9583 22.1482 25.3959 21.4451 25.2764C21.0936 25.2166 20.8084 25.0324 20.6261 24.7754Z" fill="white"/>
<path d="M6.56457 22.3839C6.1634 21.8183 6.29792 21.0273 6.8635 20.6262L23.3166 8.95592C23.8822 8.55475 24.5189 8.79868 24.9201 9.36426C25.3213 9.92984 25.341 10.6114 24.7754 11.0126L8.32228 22.6828C7.7567 23.084 6.96573 22.9494 6.56457 22.3839Z" fill="white"/>
</svg>
