<svg width="32" height="32" viewBox="0 0 32 32" fill="none" xmlns="http://www.w3.org/2000/svg">
<path d="M8.95598 8.32222C8.77364 8.06514 8.69412 7.73512 8.75391 7.38358C8.87348 6.68049 9.49047 6.24286 10.1936 6.36243L24.2552 8.75389C24.9583 8.87346 25.396 9.49045 25.2764 10.1935C25.1568 10.8966 24.5398 11.3343 23.8367 11.2147L9.77505 8.82323C9.42351 8.76344 9.13833 8.5793 8.95598 8.32222Z" fill="#29292B"/>
<path d="M20.6261 24.7754C20.4437 24.5183 20.3642 24.1883 20.424 23.8367L22.8154 9.77502C22.935 9.07194 23.552 8.6343 24.2551 8.75388C24.9582 8.87345 25.3958 9.49044 25.2762 10.1935L22.8848 24.2552C22.7652 24.9583 22.1482 25.3959 21.4451 25.2764C21.0936 25.2166 20.8084 25.0324 20.6261 24.7754Z" fill="#29292B"/>
<path d="M6.56432 22.3839C6.16316 21.8184 6.29768 21.0274 6.86325 20.6262L23.3164 8.95598C23.882 8.55482 24.5187 8.79874 24.9199 9.36432C25.321 9.9299 25.3408 10.6115 24.7752 11.0126L8.32203 22.6829C7.75646 23.084 6.96549 22.9495 6.56432 22.3839Z" fill="#29292B"/>
</svg>
