<svg width="20" height="20" viewBox="0 0 20 20" fill="none" xmlns="http://www.w3.org/2000/svg">
<g clip-path="url(#clip0_474_14171)">
<mask id="path-1-outside-1_474_14171" maskUnits="userSpaceOnUse" x="-1" y="-1" width="22" height="22" fill="black">
<rect fill="white" x="-1" y="-1" width="22" height="22"/>
<path d="M0 9.16722C0.0267917 8.94396 0.113865 8.72293 0.265684 8.53315C0.417504 8.34338 0.611744 8.20942 0.826077 8.13574L2.75285 7.45032C2.84662 7.1891 2.95155 6.93012 3.07435 6.67783L2.19692 4.8292C2.10092 4.62603 2.05626 4.39384 2.08305 4.15495C2.10985 3.91605 2.20138 3.69725 2.33981 3.52088L3.52087 2.33981C3.69949 2.20138 3.91605 2.10761 4.15495 2.08305C4.39384 2.0585 4.62603 2.10092 4.8292 2.19692L6.67783 3.07435C6.93235 2.95378 7.1891 2.84662 7.45256 2.75285L8.13798 0.826077C8.21389 0.613976 8.34785 0.417504 8.53539 0.265684C8.72516 0.113865 8.94396 0.0267917 9.16946 0H10.8305C11.0538 0.0267917 11.2748 0.113865 11.4646 0.265684C11.6544 0.417504 11.7883 0.611744 11.862 0.826077L12.5474 2.75285C12.8087 2.84662 13.0676 2.95155 13.3222 3.07435L15.1708 2.19692C15.374 2.10092 15.6062 2.05626 15.8451 2.08305C16.0862 2.10985 16.3027 2.20138 16.4791 2.33981L17.6602 3.52088C17.7986 3.69949 17.8924 3.91605 17.9169 4.15495C17.9415 4.39384 17.8991 4.62603 17.8031 4.8292L16.9257 6.67783C17.0462 6.93012 17.1534 7.1891 17.2472 7.45032L19.1739 8.13574C19.386 8.21165 19.5825 8.34561 19.7343 8.53315C19.8861 8.7207 19.9732 8.94173 20 9.16722V10.8305C19.9732 11.0538 19.8861 11.2748 19.7343 11.4646C19.5825 11.6544 19.3883 11.7883 19.1739 11.862L17.2472 12.5474C17.1534 12.8087 17.0484 13.0676 16.9257 13.3222L17.8031 15.1708C17.8991 15.374 17.9437 15.6062 17.9169 15.8451C17.8902 16.0862 17.7986 16.3027 17.6602 16.4791L16.4791 17.6602C16.3005 17.7986 16.0839 17.8924 15.8451 17.9169C15.6039 17.9437 15.374 17.8991 15.1708 17.8031L13.3222 16.9257C13.0676 17.0462 12.8109 17.1534 12.5474 17.2472L11.8643 19.1762C11.7883 19.3883 11.6544 19.5847 11.4668 19.7365C11.2771 19.8884 11.0583 19.9754 10.8328 20.0022H9.17169C8.94843 19.9754 8.72739 19.8884 8.53762 19.7365C8.34785 19.5847 8.21389 19.3905 8.14021 19.1762L7.45479 17.2494C7.19357 17.1556 6.93458 17.0507 6.68006 16.9279L4.83144 17.8053C4.62826 17.9013 4.39607 17.946 4.15718 17.9192C3.91829 17.8924 3.69949 17.8008 3.52311 17.6624L2.34204 16.4814C2.20362 16.3027 2.10985 16.0862 2.08529 15.8473C2.0585 15.6062 2.10315 15.3762 2.19915 15.173L3.07658 13.3244C2.95602 13.0699 2.84885 12.8131 2.75508 12.5497L0.826077 11.862C0.613976 11.7861 0.417504 11.6522 0.265684 11.4646C0.113865 11.2748 0.0267917 11.056 0 10.8305V9.16722ZM1.25251 9.31458C1.21232 9.76781 1.21232 10.2322 1.25251 10.6832L3.75977 11.574L3.85354 11.8754C3.97187 12.2684 4.13262 12.6501 4.32686 13.0185L4.47421 13.2976L3.33333 15.6999C3.63027 16.046 3.95401 16.372 4.3023 16.6689L6.70462 15.528L6.9837 15.6754C7.35209 15.8696 7.73387 16.0304 8.12681 16.1487L8.42822 16.2425L9.31904 18.7497C9.54454 18.7698 9.77227 18.781 10.0022 18.781C10.2322 18.781 10.4599 18.7698 10.6854 18.7497L11.5762 16.2425L11.8777 16.1487C12.2706 16.0304 12.6524 15.8696 13.0208 15.6754L13.2998 15.528L15.7022 16.6689C16.0482 16.372 16.3742 16.0482 16.6711 15.6999L15.5303 13.2976L15.6776 13.0185C15.8718 12.6501 16.0326 12.2684 16.1509 11.8754L16.2447 11.574L18.752 10.6832C18.7921 10.2322 18.7921 9.76781 18.752 9.31458L16.2447 8.42375L16.1509 8.12235C16.0326 7.73164 15.8718 7.34762 15.6776 6.98147L15.5303 6.70239L16.6711 4.30007C16.3742 3.95401 16.0505 3.62804 15.7022 3.3311L13.2998 4.47198L13.0208 4.32463C12.6524 4.13039 12.2706 3.96964 11.8777 3.85131L11.5762 3.75753L10.6854 1.25028C10.4599 1.23019 10.2322 1.21902 10.0022 1.21902C9.77227 1.21902 9.54454 1.23019 9.31904 1.25028L8.42822 3.75753L8.12681 3.85131C7.73387 3.96964 7.35209 4.13039 6.9837 4.32463L6.70462 4.47198L4.3023 3.3311C3.95624 3.62804 3.63027 3.95178 3.33333 4.30007L4.47421 6.70239L4.32686 6.98147C4.13262 7.34762 3.97187 7.73164 3.85354 8.12235L3.75977 8.42375L1.25251 9.31458Z"/>
</mask>
<path d="M0 9.16722C0.0267917 8.94396 0.113865 8.72293 0.265684 8.53315C0.417504 8.34338 0.611744 8.20942 0.826077 8.13574L2.75285 7.45032C2.84662 7.1891 2.95155 6.93012 3.07435 6.67783L2.19692 4.8292C2.10092 4.62603 2.05626 4.39384 2.08305 4.15495C2.10985 3.91605 2.20138 3.69725 2.33981 3.52088L3.52087 2.33981C3.69949 2.20138 3.91605 2.10761 4.15495 2.08305C4.39384 2.0585 4.62603 2.10092 4.8292 2.19692L6.67783 3.07435C6.93235 2.95378 7.1891 2.84662 7.45256 2.75285L8.13798 0.826077C8.21389 0.613976 8.34785 0.417504 8.53539 0.265684C8.72516 0.113865 8.94396 0.0267917 9.16946 0H10.8305C11.0538 0.0267917 11.2748 0.113865 11.4646 0.265684C11.6544 0.417504 11.7883 0.611744 11.862 0.826077L12.5474 2.75285C12.8087 2.84662 13.0676 2.95155 13.3222 3.07435L15.1708 2.19692C15.374 2.10092 15.6062 2.05626 15.8451 2.08305C16.0862 2.10985 16.3027 2.20138 16.4791 2.33981L17.6602 3.52088C17.7986 3.69949 17.8924 3.91605 17.9169 4.15495C17.9415 4.39384 17.8991 4.62603 17.8031 4.8292L16.9257 6.67783C17.0462 6.93012 17.1534 7.1891 17.2472 7.45032L19.1739 8.13574C19.386 8.21165 19.5825 8.34561 19.7343 8.53315C19.8861 8.7207 19.9732 8.94173 20 9.16722V10.8305C19.9732 11.0538 19.8861 11.2748 19.7343 11.4646C19.5825 11.6544 19.3883 11.7883 19.1739 11.862L17.2472 12.5474C17.1534 12.8087 17.0484 13.0676 16.9257 13.3222L17.8031 15.1708C17.8991 15.374 17.9437 15.6062 17.9169 15.8451C17.8902 16.0862 17.7986 16.3027 17.6602 16.4791L16.4791 17.6602C16.3005 17.7986 16.0839 17.8924 15.8451 17.9169C15.6039 17.9437 15.374 17.8991 15.1708 17.8031L13.3222 16.9257C13.0676 17.0462 12.8109 17.1534 12.5474 17.2472L11.8643 19.1762C11.7883 19.3883 11.6544 19.5847 11.4668 19.7365C11.2771 19.8884 11.0583 19.9754 10.8328 20.0022H9.17169C8.94843 19.9754 8.72739 19.8884 8.53762 19.7365C8.34785 19.5847 8.21389 19.3905 8.14021 19.1762L7.45479 17.2494C7.19357 17.1556 6.93458 17.0507 6.68006 16.9279L4.83144 17.8053C4.62826 17.9013 4.39607 17.946 4.15718 17.9192C3.91829 17.8924 3.69949 17.8008 3.52311 17.6624L2.34204 16.4814C2.20362 16.3027 2.10985 16.0862 2.08529 15.8473C2.0585 15.6062 2.10315 15.3762 2.19915 15.173L3.07658 13.3244C2.95602 13.0699 2.84885 12.8131 2.75508 12.5497L0.826077 11.862C0.613976 11.7861 0.417504 11.6522 0.265684 11.4646C0.113865 11.2748 0.0267917 11.056 0 10.8305V9.16722ZM1.25251 9.31458C1.21232 9.76781 1.21232 10.2322 1.25251 10.6832L3.75977 11.574L3.85354 11.8754C3.97187 12.2684 4.13262 12.6501 4.32686 13.0185L4.47421 13.2976L3.33333 15.6999C3.63027 16.046 3.95401 16.372 4.3023 16.6689L6.70462 15.528L6.9837 15.6754C7.35209 15.8696 7.73387 16.0304 8.12681 16.1487L8.42822 16.2425L9.31904 18.7497C9.54454 18.7698 9.77227 18.781 10.0022 18.781C10.2322 18.781 10.4599 18.7698 10.6854 18.7497L11.5762 16.2425L11.8777 16.1487C12.2706 16.0304 12.6524 15.8696 13.0208 15.6754L13.2998 15.528L15.7022 16.6689C16.0482 16.372 16.3742 16.0482 16.6711 15.6999L15.5303 13.2976L15.6776 13.0185C15.8718 12.6501 16.0326 12.2684 16.1509 11.8754L16.2447 11.574L18.752 10.6832C18.7921 10.2322 18.7921 9.76781 18.752 9.31458L16.2447 8.42375L16.1509 8.12235C16.0326 7.73164 15.8718 7.34762 15.6776 6.98147L15.5303 6.70239L16.6711 4.30007C16.3742 3.95401 16.0505 3.62804 15.7022 3.3311L13.2998 4.47198L13.0208 4.32463C12.6524 4.13039 12.2706 3.96964 11.8777 3.85131L11.5762 3.75753L10.6854 1.25028C10.4599 1.23019 10.2322 1.21902 10.0022 1.21902C9.77227 1.21902 9.54454 1.23019 9.31904 1.25028L8.42822 3.75753L8.12681 3.85131C7.73387 3.96964 7.35209 4.13039 6.9837 4.32463L6.70462 4.47198L4.3023 3.3311C3.95624 3.62804 3.63027 3.95178 3.33333 4.30007L4.47421 6.70239L4.32686 6.98147C4.13262 7.34762 3.97187 7.73164 3.85354 8.12235L3.75977 8.42375L1.25251 9.31458Z" fill="#616161"/>
<path d="M0 9.16722C0.0267917 8.94396 0.113865 8.72293 0.265684 8.53315C0.417504 8.34338 0.611744 8.20942 0.826077 8.13574L2.75285 7.45032C2.84662 7.1891 2.95155 6.93012 3.07435 6.67783L2.19692 4.8292C2.10092 4.62603 2.05626 4.39384 2.08305 4.15495C2.10985 3.91605 2.20138 3.69725 2.33981 3.52088L3.52087 2.33981C3.69949 2.20138 3.91605 2.10761 4.15495 2.08305C4.39384 2.0585 4.62603 2.10092 4.8292 2.19692L6.67783 3.07435C6.93235 2.95378 7.1891 2.84662 7.45256 2.75285L8.13798 0.826077C8.21389 0.613976 8.34785 0.417504 8.53539 0.265684C8.72516 0.113865 8.94396 0.0267917 9.16946 0H10.8305C11.0538 0.0267917 11.2748 0.113865 11.4646 0.265684C11.6544 0.417504 11.7883 0.611744 11.862 0.826077L12.5474 2.75285C12.8087 2.84662 13.0676 2.95155 13.3222 3.07435L15.1708 2.19692C15.374 2.10092 15.6062 2.05626 15.8451 2.08305C16.0862 2.10985 16.3027 2.20138 16.4791 2.33981L17.6602 3.52088C17.7986 3.69949 17.8924 3.91605 17.9169 4.15495C17.9415 4.39384 17.8991 4.62603 17.8031 4.8292L16.9257 6.67783C17.0462 6.93012 17.1534 7.1891 17.2472 7.45032L19.1739 8.13574C19.386 8.21165 19.5825 8.34561 19.7343 8.53315C19.8861 8.7207 19.9732 8.94173 20 9.16722V10.8305C19.9732 11.0538 19.8861 11.2748 19.7343 11.4646C19.5825 11.6544 19.3883 11.7883 19.1739 11.862L17.2472 12.5474C17.1534 12.8087 17.0484 13.0676 16.9257 13.3222L17.8031 15.1708C17.8991 15.374 17.9437 15.6062 17.9169 15.8451C17.8902 16.0862 17.7986 16.3027 17.6602 16.4791L16.4791 17.6602C16.3005 17.7986 16.0839 17.8924 15.8451 17.9169C15.6039 17.9437 15.374 17.8991 15.1708 17.8031L13.3222 16.9257C13.0676 17.0462 12.8109 17.1534 12.5474 17.2472L11.8643 19.1762C11.7883 19.3883 11.6544 19.5847 11.4668 19.7365C11.2771 19.8884 11.0583 19.9754 10.8328 20.0022H9.17169C8.94843 19.9754 8.72739 19.8884 8.53762 19.7365C8.34785 19.5847 8.21389 19.3905 8.14021 19.1762L7.45479 17.2494C7.19357 17.1556 6.93458 17.0507 6.68006 16.9279L4.83144 17.8053C4.62826 17.9013 4.39607 17.946 4.15718 17.9192C3.91829 17.8924 3.69949 17.8008 3.52311 17.6624L2.34204 16.4814C2.20362 16.3027 2.10985 16.0862 2.08529 15.8473C2.0585 15.6062 2.10315 15.3762 2.19915 15.173L3.07658 13.3244C2.95602 13.0699 2.84885 12.8131 2.75508 12.5497L0.826077 11.862C0.613976 11.7861 0.417504 11.6522 0.265684 11.4646C0.113865 11.2748 0.0267917 11.056 0 10.8305V9.16722ZM1.25251 9.31458C1.21232 9.76781 1.21232 10.2322 1.25251 10.6832L3.75977 11.574L3.85354 11.8754C3.97187 12.2684 4.13262 12.6501 4.32686 13.0185L4.47421 13.2976L3.33333 15.6999C3.63027 16.046 3.95401 16.372 4.3023 16.6689L6.70462 15.528L6.9837 15.6754C7.35209 15.8696 7.73387 16.0304 8.12681 16.1487L8.42822 16.2425L9.31904 18.7497C9.54454 18.7698 9.77227 18.781 10.0022 18.781C10.2322 18.781 10.4599 18.7698 10.6854 18.7497L11.5762 16.2425L11.8777 16.1487C12.2706 16.0304 12.6524 15.8696 13.0208 15.6754L13.2998 15.528L15.7022 16.6689C16.0482 16.372 16.3742 16.0482 16.6711 15.6999L15.5303 13.2976L15.6776 13.0185C15.8718 12.6501 16.0326 12.2684 16.1509 11.8754L16.2447 11.574L18.752 10.6832C18.7921 10.2322 18.7921 9.76781 18.752 9.31458L16.2447 8.42375L16.1509 8.12235C16.0326 7.73164 15.8718 7.34762 15.6776 6.98147L15.5303 6.70239L16.6711 4.30007C16.3742 3.95401 16.0505 3.62804 15.7022 3.3311L13.2998 4.47198L13.0208 4.32463C12.6524 4.13039 12.2706 3.96964 11.8777 3.85131L11.5762 3.75753L10.6854 1.25028C10.4599 1.23019 10.2322 1.21902 10.0022 1.21902C9.77227 1.21902 9.54454 1.23019 9.31904 1.25028L8.42822 3.75753L8.12681 3.85131C7.73387 3.96964 7.35209 4.13039 6.9837 4.32463L6.70462 4.47198L4.3023 3.3311C3.95624 3.62804 3.63027 3.95178 3.33333 4.30007L4.47421 6.70239L4.32686 6.98147C4.13262 7.34762 3.97187 7.73164 3.85354 8.12235L3.75977 8.42375L1.25251 9.31458Z" stroke="#616161" stroke-width="0.5" mask="url(#path-1-outside-1_474_14171)"/>
<path d="M9.94727 6.13672C12.0516 6.13675 13.7578 7.84288 13.7578 9.94727C13.7578 12.0516 12.0516 13.7578 9.94727 13.7578C7.84288 13.7578 6.13675 12.0516 6.13672 9.94727C6.13672 7.84286 7.84286 6.13672 9.94727 6.13672ZM9.94727 7.50098C8.59823 7.50098 7.50098 8.59823 7.50098 9.94727C7.50101 11.2963 8.59826 12.3936 9.94727 12.3936C11.2962 12.3935 12.3935 11.2962 12.3936 9.94727C12.3936 8.59826 11.2963 7.50101 9.94727 7.50098Z" fill="#616161" stroke="#616161" stroke-width="0.22747"/>
</g>
<defs>
<clipPath id="clip0_474_14171">
<rect width="20" height="20" fill="white"/>
</clipPath>
</defs>
</svg>
