<svg width="27" height="24" viewBox="0 0 27 24" fill="none" xmlns="http://www.w3.org/2000/svg">
<path d="M23.9827 13.3482C24.4651 13.4516 24.7723 13.9262 24.6688 14.4086C24.2944 16.1551 23.5361 17.7553 22.4168 19.1615C21.4487 20.3775 20.2696 21.3688 18.9142 22.1062C17.6057 22.8182 16.1878 23.265 14.7019 23.4338C13.216 23.6024 11.7341 23.4849 10.2992 23.0844C8.81295 22.6695 7.44219 21.9671 6.22619 20.9991C4.6253 19.7246 3.40431 18.0567 2.67004 16.176L2.07431 17.252C1.83539 17.6835 1.29174 17.8399 0.860221 17.6012C0.816435 17.5769 0.775408 17.5486 0.736789 17.5179C0.401634 17.2511 0.296933 16.7744 0.511099 16.3871L2.13276 13.4578C2.24747 13.2504 2.43971 13.0963 2.66737 13.0309C2.89499 12.9654 3.13963 12.9941 3.34685 13.1087L6.52595 14.8681L6.6037 14.9162C6.97533 15.1743 7.09912 15.6773 6.87508 16.0822C6.63615 16.5134 6.09303 16.6691 5.6616 16.4305L4.42322 15.7455C5.05096 17.2447 6.04839 18.5745 7.33863 19.6017C8.36772 20.4209 9.52498 21.0132 10.7793 21.3633C11.9916 21.7017 13.2438 21.8014 14.501 21.6587C15.7581 21.5159 16.9551 21.1381 18.0605 20.5366L18.0612 20.5372C19.2051 19.9148 20.2001 19.0781 21.0194 18.049C21.9667 16.859 22.6061 15.5088 22.9222 14.0343C23.0257 13.552 23.5004 13.2448 23.9827 13.3482ZM26.002 6.35542C26.374 6.61366 26.4972 7.11673 26.2734 7.52135L24.6517 10.4506C24.4129 10.882 23.87 11.0389 23.4384 10.8003L20.2585 9.04034C20.2144 9.01592 20.1729 8.9884 20.1345 8.95782C19.7993 8.69102 19.6951 8.21366 19.9094 7.82625C20.1482 7.39492 20.6919 7.23854 21.1235 7.47713L22.3618 8.16215C21.7341 6.66304 20.7366 5.33304 19.4464 4.30597C18.4173 3.48667 17.2596 2.89523 16.0052 2.54507C14.793 2.20677 13.5419 2.10692 12.2848 2.24959C11.0275 2.39234 9.82957 2.77025 8.72399 3.37179C7.58008 3.99424 6.58511 4.83087 5.76585 5.85999C4.81848 7.05009 4.17818 8.3996 3.86221 9.87415C3.75885 10.3564 3.28474 10.6629 2.80235 10.5595C2.66354 10.5298 2.53797 10.4701 2.43316 10.3867C2.17708 10.1828 2.04204 9.8433 2.11563 9.49981C2.48992 7.75325 3.24826 6.15317 4.36768 4.74695C5.33574 3.5309 6.51479 2.5397 7.87026 1.80219C9.17886 1.09016 10.5966 0.6434 12.0826 0.474659C13.5685 0.305939 15.0504 0.42354 16.4852 0.824021C17.9716 1.23887 19.3428 1.94049 20.5589 2.90856C22.1598 4.18304 23.3801 5.85166 24.1144 7.73243L24.7101 6.65638C24.949 6.22485 25.4926 6.0684 25.9242 6.30726L26.002 6.35542Z" fill="#29292B" stroke="#29292B" stroke-width="0.8"/>
</svg>
