<svg width="27" height="24" viewBox="0 0 27 24" fill="none" xmlns="http://www.w3.org/2000/svg">
<path d="M23.9829 13.3483C24.4653 13.4517 24.7725 13.9264 24.6691 14.4088C24.2946 16.1553 23.5364 17.7555 22.417 19.1617C21.449 20.3776 20.2698 21.3689 18.9144 22.1064C17.6059 22.8183 16.188 23.2652 14.7021 23.4339C13.2162 23.6026 11.7343 23.4851 10.2994 23.0846C8.8132 22.6697 7.44243 21.9673 6.22644 20.9993C4.62555 19.7248 3.40455 18.0569 2.67028 16.1762L2.07455 17.2522C1.83563 17.6836 1.29199 17.8401 0.860465 17.6013C0.816679 17.5771 0.775652 17.5488 0.737034 17.5181C0.401879 17.2513 0.297177 16.7746 0.511343 16.3873L2.13301 13.458C2.24771 13.2506 2.43995 13.0965 2.66761 13.031C2.89523 12.9656 3.13988 12.9942 3.34709 13.1089L6.5262 14.8683L6.60394 14.9164C6.97557 15.1745 7.09936 15.6775 6.87532 16.0823C6.6364 16.5136 6.09328 16.6693 5.66184 16.4307L4.42346 15.7457C5.05121 17.2449 6.04863 18.5747 7.33887 19.6019C8.36797 20.4211 9.52523 21.0134 10.7795 21.3635C11.9918 21.7019 13.244 21.8016 14.5013 21.6589C15.7584 21.5161 16.9553 21.1383 18.0607 20.5368L18.0615 20.5374C19.2054 19.915 20.2004 19.0783 21.0196 18.0492C21.967 16.8592 22.6063 15.509 22.9225 14.0344C23.0259 13.5522 23.5006 13.245 23.9829 13.3483ZM26.0022 6.3556C26.3742 6.61384 26.4974 7.11691 26.2736 7.52153L24.6519 10.4508C24.4132 10.8822 23.8702 11.0391 23.4386 10.8005L20.2587 9.04052C20.2146 9.0161 20.1731 8.98859 20.1347 8.95801C19.7996 8.6912 19.6953 8.21384 19.9096 7.82644C20.1485 7.3951 20.6922 7.23872 21.1237 7.47731L22.3621 8.16233C21.7343 6.66322 20.7368 5.33322 19.4467 4.30615C18.4175 3.48686 17.2598 2.89541 16.0054 2.54526C14.7933 2.20695 13.5421 2.10711 12.285 2.24977C11.0277 2.39253 9.82982 2.77043 8.72423 3.37198C7.58032 3.99443 6.58535 4.83105 5.7661 5.86017C4.81872 7.05028 4.17842 8.39978 3.86245 9.87434C3.75909 10.3566 3.28498 10.6631 2.8026 10.5597C2.66378 10.53 2.53821 10.4703 2.43341 10.3869C2.17732 10.183 2.04228 9.84348 2.11588 9.49999C2.49017 7.75343 3.2485 6.15336 4.36792 4.74713C5.33598 3.53108 6.51504 2.53989 7.8705 1.80237C9.17911 1.09034 10.5968 0.643583 12.0828 0.474842C13.5688 0.306122 15.0506 0.423723 16.4855 0.824204C17.9718 1.23906 19.343 1.94068 20.5591 2.90874C22.1601 4.18323 23.3804 5.85185 24.1147 7.73261L24.7104 6.65657C24.9492 6.22504 25.4928 6.06859 25.9245 6.30744L26.0022 6.3556Z" fill="white" stroke="white" stroke-width="0.8"/>
</svg>
