<svg width="26" height="26" viewBox="0 0 26 26" fill="none" xmlns="http://www.w3.org/2000/svg">
<g clip-path="url(#clip0_476_21609)">
<path d="M22.8529 14.3525C23.2557 14.4388 23.5124 14.8353 23.4261 15.2381C23.0691 16.903 22.3467 18.4284 21.2795 19.7691C20.3566 20.9284 19.2332 21.8734 17.9413 22.5764C16.6938 23.2551 15.3421 23.6797 13.9254 23.8406C12.5089 24.0014 11.0967 23.8898 9.72897 23.5081C8.31235 23.1127 7.0051 22.4444 5.84577 21.5215C4.25411 20.2544 3.05756 18.5783 2.36936 16.6907L1.67584 17.946C1.47634 18.3061 1.02255 18.4367 0.662325 18.2376L0.661561 18.237C0.624932 18.2167 0.590646 18.1931 0.558447 18.1674C0.278592 17.9447 0.191596 17.5462 0.37057 17.2228L1.93225 14.4018C2.02803 14.2286 2.18893 14.1006 2.37902 14.046C2.56899 13.9914 2.77283 14.0145 2.94577 14.1102L6.00774 15.805L6.00835 15.8043C6.36841 16.0038 6.49886 16.458 6.29934 16.8185C6.09986 17.1788 5.64615 17.3094 5.28582 17.1101L3.81226 16.2941C4.41303 17.8786 5.43167 19.2846 6.77513 20.354C7.77823 21.1525 8.90649 21.7306 10.1295 22.072C11.3114 22.4019 12.5317 22.4977 13.7571 22.3585C14.9827 22.2194 16.1504 21.8524 17.2282 21.266C18.3436 20.6591 19.3135 19.8428 20.112 18.8397C21.0355 17.6798 21.659 16.3633 21.9673 14.9256C22.0536 14.523 22.4503 14.2664 22.8529 14.3525ZM24.6919 7.55949C25.0523 7.75921 25.1823 8.21344 24.9829 8.57378L23.4213 11.3948C23.2218 11.7551 22.7682 11.8858 22.4077 11.6864L19.3458 9.99151C19.3089 9.97109 19.2742 9.94821 19.242 9.92267C18.9622 9.6999 18.8752 9.30144 19.0542 8.97799C19.2536 8.61784 19.7073 8.48721 20.0677 8.68639L21.5411 9.50109C20.9403 7.91731 19.922 6.51223 18.5791 5.4431C17.5761 4.64462 16.4477 4.06658 15.2247 3.72515C14.0428 3.39528 12.8219 3.29883 11.5964 3.43798C10.371 3.57715 9.20381 3.9448 8.12608 4.53115C7.01068 5.13805 6.04003 5.95369 5.24146 6.95679C4.31803 8.11678 3.69431 9.43327 3.38623 10.8709C3.30529 11.2486 2.95155 11.4981 2.57565 11.4564L2.50058 11.4441C2.3847 11.4193 2.28032 11.3685 2.19292 11.299C1.97894 11.1287 1.86601 10.8452 1.92744 10.5584C2.28422 8.89353 3.00745 7.3688 4.07479 6.02804C4.99772 4.86871 6.12104 3.92374 7.41299 3.22078C8.66039 2.54208 10.012 2.11604 11.4287 1.95519C12.8453 1.7944 14.2582 1.9065 15.6259 2.28827C17.0424 2.68371 18.3493 3.35282 19.5085 4.27566C21.0996 5.54237 22.2958 7.21756 22.984 9.10444L23.6784 7.85109C23.8779 7.49091 24.3316 7.36008 24.6919 7.55949Z" fill="#0302FD" stroke="#0302FD" stroke-width="0.541667"/>
</g>
<defs>
<clipPath id="clip0_476_21609">
<rect width="26" height="26" fill="white"/>
</clipPath>
</defs>
</svg>
