<svg width="26" height="26" viewBox="0 0 26 26" fill="none" xmlns="http://www.w3.org/2000/svg">
<g clip-path="url(#clip0_474_14911)">
<path d="M22.8527 14.3525C23.2555 14.4388 23.5122 14.8353 23.4258 15.2381C23.0689 16.903 22.3465 18.4284 21.2792 19.7691C20.3563 20.9284 19.2329 21.8734 17.941 22.5764C16.6936 23.2551 15.3419 23.6797 13.9252 23.8406C12.5086 24.0014 11.0965 23.8898 9.72872 23.5081C8.3121 23.1127 7.00485 22.4444 5.84552 21.5215C4.25387 20.2544 3.05732 18.5783 2.36912 16.6907L1.6756 17.946C1.4761 18.3061 1.02231 18.4367 0.662081 18.2376L0.661317 18.237C0.624688 18.2167 0.590402 18.1931 0.558203 18.1674C0.278348 17.9447 0.191352 17.5462 0.370326 17.2228L1.93201 14.4018C2.02779 14.2286 2.18868 14.1006 2.37878 14.046C2.56875 13.9914 2.77259 14.0145 2.94552 14.1102L6.0075 15.805L6.0081 15.8043C6.36817 16.0038 6.49862 16.458 6.29909 16.8185C6.09961 17.1788 5.64591 17.3094 5.28558 17.1101L3.81201 16.2941C4.41279 17.8786 5.43143 19.2846 6.77489 20.354C7.77798 21.1525 8.90624 21.7306 10.1293 22.072C11.3111 22.4019 12.5314 22.4977 13.7569 22.3585C14.9824 22.2194 16.1501 21.8524 17.2279 21.266C18.3433 20.6591 19.3132 19.8428 20.1118 18.8397C21.0352 17.6798 21.6588 16.3633 21.967 14.9256C22.0534 14.523 22.45 14.2664 22.8527 14.3525ZM24.6917 7.55949C25.0521 7.75921 25.182 8.21344 24.9827 8.57378L23.421 11.3948C23.2215 11.7551 22.7679 11.8858 22.4075 11.6864L19.3455 9.99151C19.3086 9.97109 19.2739 9.94821 19.2418 9.92267C18.962 9.6999 18.875 9.30144 19.0539 8.97799C19.2533 8.61784 19.7071 8.48721 20.0674 8.68639L21.5408 9.50109C20.94 7.91731 19.9218 6.51223 18.5789 5.4431C17.5759 4.64462 16.4474 4.06658 15.2245 3.72515C14.0426 3.39528 12.8217 3.29883 11.5961 3.43798C10.3708 3.57715 9.20356 3.9448 8.12584 4.53115C7.01044 5.13805 6.03979 5.95369 5.24122 6.95679C4.31779 8.11678 3.69407 9.43327 3.38598 10.8709C3.30504 11.2486 2.9513 11.4981 2.57541 11.4564L2.50034 11.4441C2.38445 11.4193 2.28008 11.3685 2.19267 11.299C1.9787 11.1287 1.86577 10.8452 1.9272 10.5584C2.28398 8.89353 3.00721 7.3688 4.07455 6.02804C4.99748 4.86871 6.1208 3.92374 7.41274 3.22078C8.66014 2.54208 10.0118 2.11604 11.4284 1.95519C12.845 1.7944 14.2579 1.9065 15.6257 2.28827C17.0421 2.68371 18.349 3.35282 19.5083 4.27566C21.0993 5.54237 22.2955 7.21756 22.9837 9.10444L23.6782 7.85109C23.8777 7.49091 24.3313 7.36008 24.6917 7.55949Z" fill="#949494" stroke="#949494" stroke-width="0.541667"/>
</g>
<defs>
<clipPath id="clip0_474_14911">
<rect width="26" height="26" fill="white"/>
</clipPath>
</defs>
</svg>
