<svg width="26" height="26" viewBox="0 0 26 26" fill="none" xmlns="http://www.w3.org/2000/svg">
<path d="M8.94109 5.01303C9.29624 4.77532 9.77685 4.87053 10.0146 5.22568L10.445 5.86875C10.6827 6.2239 10.5875 6.70451 10.2323 6.94222L3.8017 11.2463C3.44655 11.484 2.96594 11.3888 2.72823 11.0337L2.29782 10.3906C2.06011 10.0354 2.15532 9.55484 2.51047 9.31713L8.94109 5.01303Z" fill="#949494"/>
<path d="M16.6291 8.70677C17.0029 8.91383 17.1381 9.38475 16.9311 9.7586L16.5562 10.4355C16.3491 10.8094 15.8782 10.9446 15.5043 10.7375L8.73517 6.98828C8.36132 6.78122 8.22611 6.3103 8.43317 5.93645L8.8081 5.25953C9.01516 4.88568 9.48608 4.75048 9.85993 4.95754L16.6291 8.70677Z" fill="#949494"/>
<path d="M21.6637 2.37564C21.9756 2.08351 22.4653 2.09956 22.7574 2.4115L23.3773 3.07341C23.6694 3.38535 23.6534 3.87503 23.3414 4.16716L16.4912 10.5824C16.1793 10.8745 15.6896 10.8585 15.3975 10.5466L14.7776 9.88464C14.4855 9.57271 14.5015 9.08302 14.8134 8.79089L21.6637 2.37564Z" fill="#949494"/>
<rect x="2.94043" y="13.4539" width="2.32143" height="10.0595" rx="0.77381" fill="#949494" fill-opacity="0.85098"/>
<rect x="15.3213" y="14.2277" width="2.32143" height="9.28571" rx="0.77381" fill="#949494" fill-opacity="0.85098"/>
<rect x="9.13086" y="11.9062" width="2.32143" height="11.6071" rx="0.77381" fill="#949494" fill-opacity="0.85098"/>
<rect x="21.5117" y="10.3586" width="2.32143" height="13.1548" rx="0.77381" fill="#949494" fill-opacity="0.85098"/>
</svg>
