<svg width="26" height="26" viewBox="0 0 26 26" fill="none" xmlns="http://www.w3.org/2000/svg">
<path d="M8.94085 5.01315C9.296 4.77544 9.77661 4.87065 10.0143 5.22581L10.4447 5.86887C10.6824 6.22402 10.5872 6.70463 10.2321 6.94234L3.80146 11.2464C3.4463 11.4841 2.9657 11.3889 2.72799 11.0338L2.29758 10.3907C2.05987 10.0356 2.15508 9.55496 2.51023 9.31725L8.94085 5.01315Z" fill="#0302FD"/>
<path d="M16.6288 8.70689C17.0027 8.91395 17.1379 9.38487 16.9308 9.75873L16.5559 10.4356C16.3488 10.8095 15.8779 10.9447 15.5041 10.7376L8.73492 6.98841C8.36107 6.78134 8.22586 6.31042 8.43293 5.93657L8.80785 5.25965C9.01491 4.8858 9.48584 4.7506 9.85969 4.95766L16.6288 8.70689Z" fill="#0302FD"/>
<path d="M21.6634 2.37576C21.9753 2.08363 22.465 2.09969 22.7572 2.41162L23.377 3.07354C23.6692 3.38547 23.6531 3.87515 23.3412 4.16728L16.491 10.5825C16.179 10.8747 15.6894 10.8586 15.3972 10.5467L14.7773 9.88476C14.4852 9.57283 14.5013 9.08314 14.8132 8.79102L21.6634 2.37576Z" fill="#0302FD"/>
<rect x="2.94043" y="13.4539" width="2.32143" height="10.0595" rx="0.77381" fill="#0302FD" fill-opacity="0.85098"/>
<rect x="15.3215" y="14.2278" width="2.32143" height="9.28571" rx="0.77381" fill="#0302FD" fill-opacity="0.85098"/>
<rect x="9.13086" y="11.9062" width="2.32143" height="11.6071" rx="0.77381" fill="#0302FD" fill-opacity="0.85098"/>
<rect x="21.5117" y="10.3586" width="2.32143" height="13.1548" rx="0.77381" fill="#0302FD" fill-opacity="0.85098"/>
</svg>
